<svg width="35" height="38" viewBox="0 0 35 38" fill="none" xmlns="http://www.w3.org/2000/svg">
<path d="M33.2719 1.23807C31.6211 -0.191919 29.6249 0.383167 27.6521 2.08394C27.3483 2.34921 27.0563 2.62695 26.7769 2.9164C23.4041 6.39373 20.2735 12.8325 19.3012 17.7512C19.6797 18.4982 19.976 19.4511 20.1716 20.1786C20.269 20.5394 20.3566 20.9038 20.434 21.2705C20.434 21.2705 20.4037 21.16 20.2795 20.8105L20.1998 20.584C20.1834 20.5422 20.1658 20.5008 20.147 20.4599C19.9268 19.9623 19.3189 18.9124 19.0505 18.456C18.8378 19.0614 18.637 19.6707 18.4483 20.2835C19.2226 21.6575 19.6926 24.0144 19.6926 24.0144C19.6926 24.0144 19.6527 23.8608 19.4581 23.328C19.2871 22.8567 18.4273 21.3935 18.2233 21.0519C17.8754 22.3023 17.7375 23.1447 17.8613 23.3496C18.1052 23.7469 18.3346 24.4347 18.5361 25.1929C18.9944 26.9033 19.3117 28.9868 19.3117 28.9868L19.3399 29.3342C19.279 30.7584 19.3093 32.1851 19.429 33.6061C19.5813 35.3879 19.866 36.917 20.2292 37.7369L20.4763 37.6058C19.9421 35.9924 19.7253 33.8772 19.8213 31.4395C19.9643 27.7115 20.8476 23.2155 22.4773 18.53C25.2338 11.4584 29.0569 5.78279 32.5551 3.07176C29.367 5.87024 25.0503 14.9334 23.758 18.2878C22.3112 22.044 21.2873 25.568 20.6694 28.9457C21.7356 25.7793 25.1811 24.4199 25.1811 24.4199C25.1811 24.4199 26.8717 22.3929 28.8469 19.4989C27.6637 19.7606 25.72 20.2104 25.0686 20.4756C24.1089 20.8662 23.85 20.9994 23.85 20.9994C23.85 20.9994 26.9604 19.1596 29.6294 18.326C33.2986 12.7092 37.297 4.72997 33.2719 1.23807ZM3.56406 2.08336C1.94512 2.08919 0.633893 3.36294 0.629395 4.93663V30.754C0.634193 32.3274 1.94602 33.6003 3.56406 33.6061H18.6279C18.5153 32.2061 18.4876 30.8009 18.5448 29.3977C18.5355 29.301 18.5271 29.178 18.519 29.0867C18.3243 27.8439 18.0718 26.6103 17.7623 25.3896C17.5689 24.6589 17.323 23.9937 17.173 23.7469C16.9868 23.4405 17.0159 23.265 17.0171 23.075C17.0171 22.8885 17.0417 22.6946 17.077 22.4749C17.1718 21.9275 17.296 21.3853 17.4507 20.8502L17.7974 20.807C17.7704 20.7522 17.7752 20.7056 17.7483 20.6566L17.6826 20.0646C17.8745 19.4417 18.0773 18.8223 18.2944 18.2076L18.6141 18.1779C18.6012 18.154 18.5976 18.1187 18.5847 18.0963L18.5157 17.6051C19.5244 12.5054 22.6546 6.03376 26.1939 2.38445C26.2994 2.27661 26.4071 2.18537 26.5103 2.08277L3.56406 2.08336Z" fill="white"/>
</svg>
