<svg width="39" height="38" viewBox="0 0 39 38" fill="none" xmlns="http://www.w3.org/2000/svg">
<path d="M0.995117 18.8437V37.4983H38.3043V0.189087H0.995117V18.8437ZM31.0604 17.3513C31.9539 17.5587 32.7661 18.026 33.3944 18.6944C33.7403 19.0545 34.041 19.4555 34.2898 19.8883C34.2898 19.9361 32.6781 21.0255 31.6961 21.6344C31.6603 21.6583 31.517 21.5031 31.3588 21.2673C31.1796 20.958 30.9249 20.6991 30.6185 20.5149C30.3121 20.3306 29.964 20.227 29.6068 20.2137C28.4756 20.1361 27.7473 20.73 27.7533 21.706C27.7439 21.949 27.7995 22.1901 27.9144 22.4045C28.1622 22.9208 28.6248 23.2283 30.0754 23.855C32.7467 25.0042 33.8899 25.7623 34.6002 26.8398C35.3942 28.0337 35.5703 29.9618 35.033 31.3885C34.4361 32.9406 32.9736 33.9942 30.9051 34.3434C29.9604 34.4516 29.0059 34.4416 28.0637 34.3136C26.6196 34.0755 25.2893 33.3822 24.2671 32.3347C23.9239 31.9556 23.2553 30.9677 23.2971 30.896C23.406 30.8152 23.5207 30.7423 23.6403 30.6782L25.0222 29.9141L26.0938 29.2932L26.3176 29.6245C26.6954 30.165 27.1762 30.6255 27.7324 30.9796C28.9263 31.6064 30.5559 31.5198 31.3618 30.7946C31.6324 30.5288 31.8012 30.1765 31.8388 29.7991C31.8764 29.4217 31.7805 29.0431 31.5678 28.7291C31.2693 28.3142 30.6723 27.965 29.0039 27.2368C27.0787 26.407 26.249 25.8936 25.4908 25.0758C25.0176 24.5361 24.6681 23.8994 24.4671 23.2103C24.3171 22.4231 24.2949 21.6168 24.4014 20.8226C24.7984 18.9631 26.1922 17.6647 28.2278 17.2797C29.1705 17.163 30.1254 17.1892 31.0604 17.3573V17.3513ZM22.3031 18.9153V20.4435H17.4589V34.2419H14.0235V20.4405H9.16732V18.9481C9.15219 18.4335 9.16415 17.9184 9.20314 17.405C9.22702 17.3782 12.1879 17.3782 15.7696 17.3782H22.2852L22.3031 18.9153Z" fill="white"/>
</svg>
