<svg width="32" height="45" viewBox="0 0 32 45" fill="none" xmlns="http://www.w3.org/2000/svg">
<path d="M0.765381 9.56283L3.54067 40.6874L15.9935 44.144L28.4811 40.6829L31.2595 9.56283H0.765381ZM24.5697 26.9279L23.7615 34.4575L23.7646 35.1024L16.0124 37.2675L16.0062 37.273L8.19217 35.132L7.66352 29.1676H11.4954L11.7671 32.1827L16.0138 33.316L16.0124 33.3211V33.3101L20.2753 32.108L20.7251 27.104H11.8146L11.7382 26.294L11.5642 24.3517L11.473 23.3206H21.0643L21.413 19.5372H6.80469L6.728 18.6467L6.55396 16.5728L6.46281 15.4099H25.5851L25.4932 16.5566L24.5697 26.9279ZM24.611 5.56414L22.1522 2.68395H24.611V0.964233H19.1079V2.46486L21.9936 5.09156H19.1079V6.81128H24.611V5.56414ZM18.0761 5.56414L15.7349 2.68395H18.0761V0.964233H12.9169V2.46486L15.5766 5.09156H12.9169V6.81128H18.0761V5.56414ZM11.8851 5.09156H9.13354V2.68395H11.8851V0.964233H7.06988V6.81128H11.8851V5.09156Z" fill="white"/>
</svg>
