<svg width="54" height="35" viewBox="0 0 54 35" fill="none" xmlns="http://www.w3.org/2000/svg">
<path d="M52.1198 5.68823L53.7874 1.41989L53.715 1.15545L37.2176 5.45098C38.9766 2.93661 38.3724 0.920044 38.3724 0.920044C38.3724 0.920044 33.104 4.24493 29.1199 4.15801C25.1359 4.07088 23.8515 3.02006 17.7424 4.94602C11.6333 6.87056 9.90729 12.7781 8.13601 14.0472C6.36473 15.3162 0.80835 19.4502 0.80835 19.4502L0.820353 19.5236L5.82998 17.9474C5.82998 17.9474 4.45583 19.2266 1.53681 23.1146L1.40043 22.99L1.40561 23.0174C1.40561 23.0174 3.75158 26.5605 6.05431 25.9055C6.28568 25.839 6.54623 25.7298 6.83099 25.5864C7.75812 26.0967 8.96816 26.5982 10.3042 26.7362C10.3042 26.7362 9.39985 25.6972 8.64532 24.5151C8.84895 24.3855 9.05797 24.2507 9.2703 24.1143L9.17179 24.1826L11.0792 24.8751L10.8688 23.1027C10.8756 23.0992 10.8808 23.0941 10.8876 23.0906L12.7624 23.7713L12.5293 22.1593C12.7634 22.038 13.0005 21.9226 13.2404 21.813L15.1946 14.5082L23.275 9.06097L22.6328 10.6579C20.9946 14.6395 17.9185 15.5794 17.9185 15.5794L16.6342 16.0605C15.6797 17.1761 15.2774 17.4508 14.9496 21.1954C15.7195 21.0043 16.4548 20.9581 17.1209 21.1356C20.5735 22.0552 21.7696 26.1666 20.8392 27.3044C20.6062 27.5893 20.0522 28.0754 19.3531 28.647H17.9514L17.9324 29.7695C17.884 29.8071 17.8357 29.8429 17.789 29.8803H16.3631L16.3459 30.9755C16.2199 31.0712 16.0938 31.1633 15.9732 31.2537C14.6336 31.2809 12.9366 30.1259 12.9366 30.1259C12.9366 31.177 13.8224 32.7941 13.8224 32.7941C13.8224 32.7941 13.8809 32.7669 13.9792 32.719C13.8929 32.7822 13.8447 32.8164 13.8447 32.8164C13.8447 32.8164 17.4299 35.179 19.6879 34.3039C21.6953 33.5259 26.8931 29.476 31.3795 27.5586L44.956 24.0239L46.7461 19.44L36.3993 22.1335V18.0173L48.5398 14.856L50.3299 10.2721L36.4028 13.8991V9.78067L52.1198 5.68823Z" fill="white"/>
</svg>
