<svg width="38" height="42" viewBox="0 0 38 42" fill="none" xmlns="http://www.w3.org/2000/svg">
<path d="M36.4079 9.44801L21.1692 0.599627C20.2082 0.0522402 18.9568 0.0522402 17.9882 0.599627L2.58672 9.44801C1.59492 10.0186 0.893066 11.0909 0.893066 12.2378V29.9111C0.893066 31.058 1.61324 32.1307 2.60503 32.7044L6.67415 35.0155C8.61903 35.9735 9.30638 35.9735 10.1914 35.9735C13.071 35.9735 14.716 34.2321 14.716 31.1949V13.7469C14.716 13.5005 14.5878 13.1339 14.3459 13.1339H12.4027C12.1567 13.1339 11.6058 13.5005 11.6058 13.7466V31.1945C11.6058 32.5409 10.388 33.8807 8.11208 32.7427L3.9075 30.3192C3.76097 30.2397 3.65765 30.0797 3.65765 29.9111V12.2378C3.65765 12.0713 3.84944 11.904 3.997 11.8186L19.3487 2.98546C19.4921 2.90425 19.7029 2.90425 19.846 2.98546L35.0104 11.8166C35.1555 11.904 35.1044 12.0661 35.1044 12.2378V29.9111C35.1044 30.0797 35.1676 30.2439 35.0242 30.3251L19.7893 39.1634C19.6587 39.2419 19.4966 39.2419 19.3536 39.1634L15.4462 36.8312C15.3283 36.7628 15.1884 36.7382 15.0754 36.8015C13.9882 37.4176 13.7878 37.4995 12.768 37.853C12.5171 37.9405 12.147 38.0922 12.9097 38.5196L18.0234 41.5448C18.5117 41.8268 19.0655 41.9753 19.6293 41.9754C20.1968 41.9754 20.7524 41.8282 21.2421 41.5448L36.4076 32.7044C37.3994 32.1266 37.8693 31.058 37.8693 29.9111V12.2378C37.8693 11.0909 37.3994 10.0213 36.4079 9.44801ZM24.3609 27.1106C20.3087 27.1106 19.4161 25.9926 19.1186 23.9776C19.084 23.7606 18.8998 23.5011 18.679 23.5011H16.6985C16.4535 23.5011 16.2565 23.7983 16.2565 24.0422C16.2565 26.6223 17.6592 29.7483 24.3612 29.7483C29.2127 29.7483 31.9943 27.8632 31.9943 24.5271C31.9943 21.2192 29.7594 20.3512 25.0545 19.7284C20.2987 19.0999 19.8156 18.7823 19.8156 17.6681C19.8156 16.7496 20.2247 15.5246 23.7461 15.5246C26.8926 15.5246 28.0523 16.1998 28.5295 18.3206C28.5703 18.52 28.7524 18.663 28.958 18.663H30.9465C31.0688 18.663 31.1856 18.6136 31.2713 18.5262C31.3543 18.4322 31.3981 18.3144 31.3871 18.1879C31.0792 14.5359 28.6529 12.8339 23.7458 12.8339C19.3809 12.8339 16.777 14.6772 16.777 17.767C16.777 21.1183 19.3677 22.0445 23.5578 22.4588C28.5703 22.9502 28.9601 23.6828 28.9601 24.6688C28.9601 26.3811 27.5854 27.1106 24.3609 27.1106Z" fill="white"/>
</svg>
