<svg width="47" height="42" viewBox="0 0 47 42" fill="none" xmlns="http://www.w3.org/2000/svg">
<path d="M23.5987 25.2982C25.9477 25.2982 27.8519 23.394 27.8519 21.045C27.8519 18.696 25.9477 16.7917 23.5987 16.7917C21.2497 16.7917 19.3455 18.696 19.3455 21.045C19.3455 23.394 21.2497 25.2982 23.5987 25.2982Z" fill="white"/>
<path d="M39.7535 14.0308C38.9327 13.7323 38.0746 13.4338 37.1792 13.1727C37.403 12.2772 37.5896 11.3818 37.7388 10.5237C38.5223 5.59891 37.6642 2.12916 35.2764 0.786033C34.5676 0.375632 33.7841 0.189087 32.8886 0.189087C30.277 0.189087 26.9565 2.12916 23.5987 5.37505C20.2408 2.12916 16.9203 0.189087 14.3087 0.189087C13.4133 0.189087 12.6298 0.375632 11.9209 0.786033C9.53313 2.16647 8.67502 5.63622 9.45852 10.5237C9.60775 11.3818 9.7943 12.2772 10.0182 13.1727C9.12273 13.4338 8.26462 13.695 7.44382 14.0308C2.78018 15.8216 0.243164 18.284 0.243164 21.0449C0.243164 23.8058 2.81749 26.2682 7.44382 28.059C8.26462 28.3575 9.12273 28.6559 10.0182 28.9171C9.7943 29.8125 9.60775 30.7079 9.45852 31.5661C8.67502 36.4909 9.53313 39.9606 11.9209 41.3037C12.6298 41.7141 13.4133 41.9007 14.3087 41.9007C16.9576 41.9007 20.2782 39.9606 23.5987 36.7147C26.9565 39.9606 30.277 41.9007 32.8886 41.9007C33.7841 41.9007 34.5676 41.7141 35.2764 41.3037C37.6642 39.9233 38.5223 36.4536 37.7388 31.5661C37.5896 30.7079 37.403 29.8125 37.1792 28.9171C38.0746 28.6559 38.9327 28.3948 39.7535 28.059C44.4172 26.2682 46.9542 23.8058 46.9542 21.0449C46.9542 18.284 44.4172 15.8216 39.7535 14.0308ZM34.2318 2.65149C35.7614 3.54691 36.2838 6.30778 35.6495 10.2252C35.5376 11.0087 35.351 11.8295 35.1272 12.6876C33.1871 12.2399 31.1351 11.9415 28.9712 11.7549C27.7027 9.96408 26.3969 8.35978 25.091 6.90473C27.8519 4.18116 30.6501 2.31571 32.9259 2.31571C33.411 2.31571 33.8587 2.42763 34.2318 2.65149ZM30.0531 24.7758C29.3816 25.9697 28.5981 27.1636 27.7773 28.3575C26.3969 28.4694 25.0164 28.5067 23.5987 28.5067C22.1436 28.5067 20.7632 28.4694 19.42 28.3575C18.5992 27.1636 17.8531 25.9697 17.1815 24.7758C16.4726 23.5446 15.8011 22.2761 15.2041 21.0449C15.8011 19.8137 16.4726 18.5452 17.1815 17.314C17.8531 16.1201 18.6366 14.9262 19.4574 13.7323C20.8378 13.6204 22.2182 13.5831 23.636 13.5831C25.091 13.5831 26.4715 13.6204 27.8146 13.7323C28.6354 14.9262 29.3816 16.1201 30.0531 17.314C30.762 18.5452 31.4336 19.8137 32.0305 21.0449C31.3963 22.2761 30.762 23.5073 30.0531 24.7758ZM33.1498 23.5446C33.7094 24.8504 34.1572 26.1189 34.5676 27.3874C33.299 27.6859 31.9559 27.9098 30.5382 28.0963C30.9859 27.3874 31.4709 26.6413 31.8813 25.8578C32.329 25.0743 32.7394 24.2908 33.1498 23.5446ZM23.5987 33.6554C22.7033 32.6853 21.8451 31.6407 21.0243 30.5587C21.8825 30.596 22.7406 30.6333 23.5987 30.6333C24.4568 30.6333 25.3149 30.596 26.173 30.5587C25.3522 31.6407 24.4941 32.6853 23.5987 33.6554ZM16.6592 28.059C15.2414 27.8725 13.8983 27.6486 12.6298 27.3501C13.0402 26.1189 13.4879 24.8131 14.0475 23.5073C14.4579 24.2535 14.8683 25.037 15.316 25.7831C15.7638 26.6039 16.2115 27.3128 16.6592 28.059ZM14.0475 18.5452C13.4879 17.2394 13.0402 15.9708 12.6298 14.7023C13.8983 14.4039 15.2414 14.18 16.6592 13.9935C16.2115 14.7023 15.7264 15.4485 15.316 16.232C14.8683 17.0155 14.4579 17.799 14.0475 18.5452ZM23.5987 8.4344C24.4941 9.40444 25.3522 10.4491 26.173 11.5311C25.3149 11.4937 24.4568 11.4564 23.5987 11.4564C22.7406 11.4564 21.8825 11.4937 21.0243 11.5311C21.8451 10.4491 22.7033 9.40444 23.5987 8.4344ZM31.8813 16.2693L30.5382 14.0308C31.9559 14.2173 33.299 14.4412 34.5676 14.7396C34.1572 15.9708 33.7094 17.2767 33.1498 18.5825C32.7394 17.799 32.329 17.0155 31.8813 16.2693ZM11.5478 10.2252C10.9136 6.30778 11.4359 3.54691 12.9656 2.65149C13.3387 2.42763 13.7864 2.31571 14.2714 2.31571C16.5099 2.31571 19.3081 4.14385 22.1063 6.90473C20.8005 8.32247 19.4947 9.96408 18.2262 11.7549C16.0622 11.9415 14.0102 12.2772 12.0702 12.6876C11.8463 11.8295 11.6971 11.0087 11.5478 10.2252ZM2.33247 21.0449C2.33247 19.2914 4.45909 17.4259 8.19001 16.0455C8.93619 15.747 9.75699 15.4858 10.5778 15.262C11.1747 17.1274 11.9209 19.1048 12.8163 21.0822C11.9209 23.0596 11.1374 24.9997 10.5778 26.8651C5.42913 25.3727 2.33247 23.1342 2.33247 21.0449ZM12.9656 39.4383C11.4359 38.5429 10.9136 35.782 11.5478 31.8645C11.6598 31.081 11.8463 30.2602 12.0702 29.4021C14.0102 29.8498 16.0622 30.1483 18.2262 30.3349C19.4947 32.1257 20.8005 33.73 22.1063 35.185C19.3454 37.9086 16.5472 39.7741 14.2714 39.7741C13.7864 39.7741 13.3387 39.6621 12.9656 39.4383ZM35.6495 31.8645C36.2838 35.782 35.7614 38.5429 34.2318 39.4383C33.8587 39.6621 33.411 39.7741 32.9259 39.7741C30.6874 39.7741 27.8892 37.9459 25.091 35.185C26.3969 33.7673 27.7027 32.1257 28.9712 30.3349C31.1351 30.1483 33.1871 29.8125 35.1272 29.4021C35.351 30.2602 35.5003 31.081 35.6495 31.8645ZM39.0073 26.0443C38.2612 26.3428 37.4404 26.6039 36.6196 26.8278C36.0226 24.9623 35.2764 22.985 34.381 21.0076C35.2764 19.0302 36.0599 17.0901 36.6196 15.2247C41.7682 16.717 44.8649 18.9556 44.8649 21.0449C44.8649 22.7984 42.7009 24.6639 39.0073 26.0443Z" fill="white"/>
</svg>
