<svg width="38" height="37" viewBox="0 0 38 37" fill="none" xmlns="http://www.w3.org/2000/svg">
<path d="M25.9509 25.8581C23.3275 31.2813 18.7337 34.9302 12.6563 36.1298C11.7244 36.3606 10.7678 36.4735 9.80844 36.4658C6.31061 36.4658 3.10427 34.9921 1.54774 32.5782C-0.542216 29.3626 -1.25344 22.5452 5.63728 17.5022C5.77719 18.2715 6.06285 19.3267 6.25231 19.9515C4.89962 20.9677 3.7924 22.2807 3.01391 23.792C1.73137 26.3385 1.8742 28.8821 3.39284 31.2342C4.44219 32.8199 6.10366 33.7837 8.24024 34.0784C10.9089 34.42 13.6162 33.9044 15.9792 32.6047C19.684 30.6358 22.1529 28.2838 23.7677 25.0682C23.3111 24.5911 23.0408 23.9628 23.0069 23.2998C22.9825 22.5882 23.2383 21.8959 23.7181 21.3749C24.1979 20.8538 24.8625 20.5465 25.5661 20.5204H25.6653C26.3496 20.5169 27.0092 20.7796 27.5074 21.2541C28.0055 21.7286 28.3043 22.3786 28.3417 23.0696C28.3792 23.7607 28.1525 24.4398 27.7085 24.9665C27.2646 25.4932 26.6374 25.8272 25.9567 25.8994L25.9509 25.8581ZM34.3078 19.9044C37.8668 23.9836 37.963 28.7849 36.5872 31.5702C35.3047 34.1138 31.9234 36.6603 27.3763 36.6603C25.2536 36.6165 23.1654 36.1088 21.2551 35.1719C21.9226 34.6915 22.8699 33.9222 23.3917 33.4418C24.8648 34.0871 26.4501 34.4297 28.0554 34.4498C30.9994 34.4498 33.2293 33.0586 34.5585 30.515C35.4125 28.835 35.4621 26.8661 34.6547 24.8501C33.6639 22.3135 31.901 20.1613 29.6207 18.7048C26.6291 16.6656 23.1024 15.5785 19.4945 15.5835H18.6404C18.4413 16.0486 18.1173 16.4481 17.7052 16.7367C17.2931 17.0253 16.8093 17.1914 16.3086 17.2163H16.2182C15.5257 17.2077 14.8638 16.9265 14.373 16.4323C13.8823 15.9381 13.6014 15.27 13.59 14.5698C13.5786 13.8696 13.8376 13.1924 14.3121 12.6822C14.7865 12.172 15.4389 11.8689 16.1308 11.8373H16.2269C16.7091 11.8377 17.1818 11.9724 17.5932 12.2266C18.0045 12.4809 18.3387 12.8449 18.5588 13.2786H19.3196C25.3825 13.2786 30.705 15.6306 34.3078 19.9044ZM10.1874 26.6834C10.1375 26.1939 10.2547 25.702 10.5197 25.2893C7.86131 20.6324 6.43886 14.7287 8.62209 8.58338C10.1874 3.9648 14.1283 0.843506 18.4014 0.843506C22.9603 0.843506 27.7086 4.8785 28.277 12.6537C27.5657 12.415 26.528 12.0643 25.9043 11.9346C25.7498 9.39097 23.6249 3.05406 18.5909 3.14837C16.7866 3.19848 14.1283 4.06207 12.7612 5.8364C11.0702 7.95447 10.0864 10.5599 9.95126 13.2786C9.63084 17.0064 10.4958 20.7403 12.4201 23.9364C12.5264 23.8971 12.6396 23.8811 12.7524 23.8892H12.8457C13.5508 23.8763 14.232 24.1472 14.7395 24.6422C15.2471 25.1371 15.5394 25.8157 15.5522 26.5286C15.5649 27.2415 15.2971 27.9304 14.8076 28.4436C14.318 28.9568 13.6469 29.2524 12.9419 29.2653H12.8457C12.1579 29.2628 11.4976 28.992 11.0023 28.5094C10.5071 28.0267 10.2151 27.3695 10.1874 26.6745V26.6834Z" fill="white"/>
</svg>
