<svg width="36" height="23" viewBox="0 0 36 23" fill="none" xmlns="http://www.w3.org/2000/svg">
<path d="M18.2083 0.889526C13.5464 0.889526 10.6337 3.25756 9.46733 7.99558C11.215 5.62726 13.2552 4.73918 15.5855 5.33133C16.916 5.66835 17.8669 6.64888 18.9199 7.73545C20.6337 9.50301 22.6174 11.5493 26.9493 11.5493C31.611 11.5493 34.524 9.18098 35.6904 4.44186C33.9424 6.81156 31.9025 7.69964 29.5719 7.10749C28.2416 6.77019 27.2919 5.78994 26.2375 4.70337C24.5248 2.93581 22.5417 0.889526 18.2083 0.889526ZM9.46733 11.5493C4.80564 11.5493 1.8927 13.9176 0.726318 18.6567C2.47397 16.287 4.51391 15.3989 6.84448 15.9911C8.17502 16.3284 9.12588 17.3086 10.1789 18.3952C11.8927 20.1628 13.8763 22.2091 18.2083 22.2091C22.87 22.2091 25.783 19.841 26.9493 15.103C25.2014 17.4713 23.1615 18.3594 20.8309 17.7673C19.5006 17.4302 18.5509 16.4497 17.4965 15.3631C15.7838 13.5956 13.8007 11.5493 9.46733 11.5493Z" fill="white"/>
</svg>
